<svg width="104" height="104" viewBox="0 0 104 104" fill="none" xmlns="http://www.w3.org/2000/svg">
<path d="M47.0984 23.8665C46.6839 23.8665 46.2751 23.6763 46.0105 23.3167C44.7835 21.6496 42.6001 19.7371 39.1644 20.104C35.1195 20.5349 32.1157 19.2476 30.3078 18.092C29.68 17.6906 29.4964 16.8564 29.8976 16.2285C30.2987 15.6005 31.1333 15.4172 31.761 15.8183C33.2051 16.7411 35.6122 17.7692 38.8787 17.4206C43.8364 16.8943 46.8366 19.8862 48.1839 21.7174C48.6256 22.3174 48.4971 23.1622 47.8968 23.6038C47.656 23.7809 47.376 23.8665 47.0984 23.8665Z" fill="#FFD064"/>
<path d="M32.972 31.0315C32.7312 31.0315 32.4877 30.9672 32.2673 30.8318C31.6321 30.442 31.4336 29.6113 31.8234 28.9761C33.5528 26.1586 36.7222 24.2222 40.9891 23.3762C44.1001 22.7596 46.7105 22.9285 46.8198 22.9361C47.5633 22.9871 48.1246 23.631 48.0736 24.3745C48.0226 25.1174 47.3771 25.6745 46.6368 25.6284C46.5432 25.6221 37.3815 25.079 34.123 30.3877C33.8684 30.8029 33.4254 31.0315 32.972 31.0315Z" fill="#FFD064"/>
<path d="M53.3102 82.7331C75.4689 82.7331 87.7214 50.2306 52.7294 25.1271C51.859 24.5026 51.342 23.4972 51.3537 22.4259C51.3633 21.5406 51.6438 20.6812 52.1515 19.9559C53.7896 17.6166 56.1476 13.6149 57.5617 10.3917C57.9003 9.61979 57.4157 8.78955 56.5098 8.78955C54.408 8.78972 54.408 7.41425 52.3062 7.41425C50.2044 7.41425 50.2044 8.78972 48.1024 8.78972C46.3113 8.78972 45.5764 7.24869 44.7056 8.36953C42.166 11.6381 50.8645 23.1325 50.8645 23.1325C12.448 48.3874 24.8348 82.7333 47.5165 82.7333H53.3102V82.7331Z" fill="#EABC6B"/>
<path d="M62.0207 23.1323C62.0207 23.1323 70.8483 11.6751 68.3099 8.38854C67.4447 7.26839 66.707 8.78969 64.9178 8.78969C62.8156 8.78952 62.8156 7.41422 60.7135 7.41422C58.6115 7.41422 58.6115 8.78952 56.5095 8.78952C56.4059 8.78952 56.3115 8.78375 56.2177 8.77729C55.3731 12.3976 51.5672 18.0377 49.3892 21.0576C50.2469 22.3162 50.8644 23.1321 50.8644 23.1321C50.352 23.469 49.8504 23.8078 49.356 24.1478C86.0606 49.3764 73.7791 82.7329 51.3312 82.7329H65.5048C88.2551 82.733 100.565 48.4712 62.0207 23.1323Z" fill="#E8AE4D"/>
<path d="M63.6623 27.2073C58.5329 28.5028 53.4653 28.5028 48.3351 27.2073C46.5495 26.7564 45.5373 24.7486 46.1798 22.9234C46.187 22.903 46.1942 22.8825 46.2013 22.8621C46.7401 21.3319 48.268 20.4732 49.7656 20.8492C53.9657 21.9037 58.0303 21.904 62.2317 20.8492C63.7292 20.4732 65.2571 21.3319 65.7959 22.8621C65.8031 22.8825 65.8102 22.903 65.8174 22.9234C66.4601 24.7486 65.4478 26.7564 63.6623 27.2073Z" fill="#FFE07D"/>
<path d="M15.4327 88.6258L34.9674 95.8968C36.6265 96.5144 38.3825 96.8306 40.1529 96.8306H60.2848C63.1022 96.8306 65.8615 96.0301 68.2413 94.5221L93.4486 78.5493C95.1117 77.0726 95.4199 74.5909 94.1688 72.7521C92.7998 70.7403 90.5352 70.3906 88.0432 71.5689L63.5016 82.3747L63.5306 78.393C63.2055 75.1248 60.6891 72.5019 57.4373 72.0419L42.4922 70.3211C39.0446 69.8333 37.3219 68.6779 34.3164 66.9198C30.2132 64.5195 25.545 63.2544 20.7913 63.2544H15.4327V88.6258Z" fill="#FFDDCE"/>
<path d="M33.7811 92.0226C35.5252 92.6717 37.3714 93.0042 39.2324 93.0042H60.3964C62.6497 93.0042 64.8669 92.5159 66.9006 91.5849L81.6996 82.2074C83.0745 81.3361 83.9474 79.8195 83.9027 78.1924C83.8789 77.3295 83.6152 76.4657 83.0984 75.7064C83.0984 75.7064 82.6479 74.9343 82.1849 74.1484L63.5016 82.3747L63.5306 78.393C63.2056 75.1248 60.6891 72.5019 57.4373 72.0419L42.4922 70.3211C39.0446 69.8333 37.3219 68.6779 34.3164 66.9198C30.2132 64.5195 25.545 63.2544 20.7913 63.2544H15.4327V85.1931L33.7811 92.0226Z" fill="#FFDDCE"/>
<path d="M94.1687 72.7521C92.7997 70.7402 90.5351 70.3906 88.0431 71.5689L81.2927 74.5411C81.6196 75.0586 81.8797 75.4716 81.8797 75.4716C83.1308 77.3104 82.8226 79.7921 81.1594 81.2688L66.4716 90.5758C64.5371 91.4614 62.4279 91.926 60.2846 91.926H40.1529C38.3826 91.926 36.6266 91.6097 34.9675 90.9922L15.4328 83.721V88.6256L34.9675 95.8968C36.6266 96.5143 38.3826 96.8306 40.1529 96.8306H56.601H60.2851C63.1024 96.8306 65.8617 96.03 68.2416 94.522L93.4488 78.5493C95.1115 77.0725 95.42 74.5907 94.1687 72.7521Z" fill="#FFCBBE"/>
<path d="M61.699 74.291L61.6983 74.3858L61.7609 74.3582C61.7405 74.3355 61.7195 74.3136 61.699 74.291Z" fill="#F5DBCC"/>
<path d="M63.5014 82.3721H48.2414C47.4962 82.3721 46.8922 81.7682 46.8922 81.0228C46.8922 80.2774 47.4961 79.6735 48.2414 79.6735H63.5212L63.5014 82.3721Z" fill="#FFCBBE"/>
<path d="M19.6364 92.5168C19.6364 93.9341 18.4875 95.0831 17.0701 95.0831H10.8762C9.45884 95.0831 8.30988 93.9341 8.30988 92.5168V61.0925C8.30988 59.6751 9.45884 58.5261 10.8762 58.5261H17.0701C18.4875 58.5261 19.6364 59.6751 19.6364 61.0925V92.5168Z" fill="#407093"/>
<path d="M59.4145 49.2281C58.7966 49.0096 58.228 48.8008 57.7034 48.599V39.9962C59.2993 40.2608 60.2573 41.0863 60.3276 41.1487C60.8758 41.6471 61.7238 41.6104 62.2268 41.065C62.732 40.5172 62.6976 39.6639 62.1498 39.1585C62.0549 39.0706 60.4025 37.582 57.7032 37.2711V35.3527C57.7032 34.6075 57.0993 34.0034 56.3539 34.0034C55.6086 34.0034 55.0047 34.6073 55.0047 35.3527V37.3804C54.6793 37.4428 54.3461 37.5221 54.0036 37.6251C51.7148 38.3144 50.004 40.277 49.5386 42.7466C49.1163 44.9876 49.8267 47.1429 51.3929 48.3713C52.292 49.0765 53.424 49.7222 55.0047 50.4123V61.0833C53.4432 61.0178 52.4842 60.7237 50.8082 59.6275C50.1846 59.2197 49.3485 59.3943 48.9406 60.018C48.5326 60.6414 48.7074 61.4776 49.3311 61.8856C51.5337 63.3266 53.0061 63.7024 55.0047 63.7801V65.9219C55.0047 66.6671 55.6086 67.2712 56.3539 67.2712C57.0993 67.2712 57.7032 66.6673 57.7032 65.9219V63.6853C61.4908 63.0707 63.7011 60.0049 64.1817 57.1449C64.7828 53.5716 62.9112 50.4642 59.4145 49.2281ZM53.0583 46.2478C52.2879 45.6438 51.9556 44.4936 52.1907 43.2463C52.4084 42.0896 53.2038 40.6843 54.7822 40.2089C54.8573 40.1862 54.9311 40.1667 55.005 40.1469V47.4352C54.1969 47.032 53.5633 46.6439 53.0583 46.2478ZM61.5209 56.6972C61.2231 58.4679 59.9234 60.3582 57.7034 60.9272V51.4801C57.9659 51.5762 58.2341 51.6731 58.515 51.7723C61.8728 52.9591 61.6646 55.8419 61.5209 56.6972Z" fill="white"/>
</svg>
