<svg width="104" height="104" viewBox="0 0 104 104" fill="none" xmlns="http://www.w3.org/2000/svg">
<path d="M86.752 20.9862H45.9318C44.684 20.9862 43.6724 21.9979 43.6724 23.2457V87.8651C43.6724 89.1129 44.684 90.1245 45.9318 90.1245H86.752C87.9998 90.1245 89.0114 89.1129 89.0114 87.8651V23.2457C89.0114 21.9979 87.9998 20.9862 86.752 20.9862Z" fill="#F3F5F9"/>
<path d="M89.0113 23.2457V87.8651C89.0113 89.1123 87.9991 90.1245 86.7519 90.1245H66.3418V20.9862H86.7519C87.9991 20.9862 89.0113 21.9985 89.0113 23.2457Z" fill="#D6E1F1"/>
<path d="M59.306 44.3571C58.4458 43.4534 57.0156 43.4183 56.1116 44.2785L53.2899 46.9647L52.3247 46.0455C51.4211 45.1853 49.991 45.2204 49.1303 46.124C48.2699 47.0278 48.305 48.458 49.2088 49.3184L51.732 51.7204C52.1682 52.1359 52.729 52.3434 53.2899 52.3434C53.8507 52.3434 54.4115 52.1357 54.8479 51.7204L59.2275 47.5512C60.1313 46.6911 60.1664 45.2611 59.306 44.3571Z" fill="#F25A3C"/>
<path d="M80.5763 43.6556H65.5134C64.2656 43.6556 63.254 44.6673 63.254 45.9151C63.254 47.1629 64.2656 48.1745 65.5134 48.1745H80.5763C81.8241 48.1745 82.8357 47.1629 82.8357 45.9151C82.8357 44.6673 81.8241 43.6556 80.5763 43.6556Z" fill="#D6E1F1"/>
<path d="M82.8356 45.9151C82.8356 47.1623 81.8233 48.1745 80.5761 48.1745H66.3418V43.6556H80.5761C81.8233 43.6556 82.8356 44.6679 82.8356 45.9151Z" fill="#B4C5DA"/>
<path d="M80.5763 52.6934H65.5134C64.2656 52.6934 63.254 53.705 63.254 54.9528C63.254 56.2006 64.2656 57.2122 65.5134 57.2122H80.5763C81.8241 57.2122 82.8357 56.2006 82.8357 54.9528C82.8357 53.705 81.8241 52.6934 80.5763 52.6934Z" fill="#D6E1F1"/>
<path d="M82.8356 54.9528C82.8356 56.2 81.8233 57.2122 80.5761 57.2122H66.3418V52.6934H80.5761C81.8233 52.6934 82.8356 53.7056 82.8356 54.9528Z" fill="#B4C5DA"/>
<path d="M80.5763 66.2499H65.5134C64.2656 66.2499 63.254 67.2616 63.254 68.5094C63.254 69.7572 64.2656 70.7688 65.5134 70.7688H80.5763C81.8241 70.7688 82.8357 69.7572 82.8357 68.5094C82.8357 67.2616 81.8241 66.2499 80.5763 66.2499Z" fill="#D6E1F1"/>
<path d="M82.8356 68.5094C82.8356 69.7566 81.8233 70.7688 80.5761 70.7688H66.3418V66.2499H80.5761C81.8233 66.2499 82.8356 67.2622 82.8356 68.5094Z" fill="#B4C5DA"/>
<path d="M80.5763 75.2876H65.5134C64.2656 75.2876 63.254 76.2992 63.254 77.547C63.254 78.7949 64.2656 79.8065 65.5134 79.8065H80.5763C81.8241 79.8065 82.8357 78.7949 82.8357 77.547C82.8357 76.2992 81.8241 75.2876 80.5763 75.2876Z" fill="#D6E1F1"/>
<path d="M82.8356 77.547C82.8356 78.7942 81.8233 79.8065 80.5761 79.8065H66.3418V75.2876H80.5761C81.8233 75.2876 82.8356 76.2998 82.8356 77.547Z" fill="#B4C5DA"/>
<path d="M65.5134 35.823H80.5763C81.8241 35.823 82.8357 34.8114 82.8357 33.5636C82.8357 32.3158 81.8241 31.3041 80.5763 31.3041H65.5134C64.2656 31.3041 63.254 32.3158 63.254 33.5636C63.254 34.8114 64.2656 35.823 65.5134 35.823Z" fill="#D6E1F1"/>
<path d="M82.8356 33.5636C82.8356 34.8108 81.8233 35.823 80.5761 35.823H66.3418V31.3041H80.5761C81.8233 31.3041 82.8356 32.3164 82.8356 33.5636Z" fill="#B4C5DA"/>
<path d="M23.1192 87.9348C23.1569 89.1549 24.1569 90.1245 25.3776 90.1245H35.299C36.5224 90.1245 37.5236 89.1506 37.5575 87.9278L38.2664 60.9026L29.9651 59.3963L22.3314 60.9026L23.1192 87.9348Z" fill="#544473"/>
<path d="M38.2663 60.9026L37.5584 87.9283C37.5237 89.1514 36.5221 90.1245 35.299 90.1245H29.9652V59.3963L38.2663 60.9026Z" fill="#413559"/>
<path d="M56.7372 30.787C55.482 29.2483 53.2576 28.9276 51.6189 30.0489L45.9315 33.9402L37.5769 29.2099C37.1243 28.9535 36.6129 28.8188 36.0926 28.8188H20.9272C17.5997 28.8188 14.9021 31.5164 14.9021 34.844V56.4302C14.9021 58.9002 16.9045 60.9026 19.3745 60.9026H38.2662L38.852 40.116L46.8352 43.5804L56.1501 36.1966C57.8202 34.8727 58.0844 32.4384 56.7372 30.787Z" fill="#FFDF40"/>
<path d="M56.1504 36.1966L46.8356 43.5804L38.8523 40.116L38.2663 60.9026H29.9652V28.8188H36.0929C36.6132 28.8188 37.1246 28.9535 37.5772 29.2099L45.9318 33.9402L51.6195 30.0495C53.2583 28.9273 55.4831 29.2481 56.7378 30.7876C58.0845 32.4384 57.8209 34.8726 56.1504 36.1966Z" fill="#FFBE40"/>
<path d="M57.4076 70.7801L58.0806 70.1071C58.963 69.2247 58.963 67.7942 58.0806 66.9118C57.1984 66.0295 55.7677 66.0295 54.8853 66.9118L54.2122 67.5848L53.5503 66.923C52.6681 66.0408 51.2374 66.0406 50.355 66.923C49.4726 67.8054 49.4726 69.2359 50.355 70.1183L51.0167 70.78L50.3588 71.4379C49.4764 72.3203 49.4764 73.7508 50.3588 74.6332C50.8 75.0744 51.3782 75.295 51.9563 75.295C52.5345 75.295 53.1129 75.0745 53.5539 74.6332L54.2119 73.9752L54.8699 74.6333C55.3111 75.0745 55.8894 75.295 56.4675 75.295C57.0456 75.295 57.624 75.0745 58.0651 74.6332C58.9474 73.7508 58.9474 72.3203 58.0651 71.4379L57.4076 70.7801Z" fill="#79CC52"/>
<path d="M29.9653 28.8189C34.3328 28.8189 37.8733 25.2784 37.8733 20.9109C37.8733 16.5434 34.3328 13.0029 29.9653 13.0029C25.5979 13.0029 22.0574 16.5434 22.0574 20.9109C22.0574 25.2784 25.5979 28.8189 29.9653 28.8189Z" fill="#D69A8B"/>
<path d="M37.8732 20.9109C37.8732 25.2716 34.3259 28.8189 29.9652 28.8189V13.0029C34.3259 13.0029 37.8732 16.5502 37.8732 20.9109Z" fill="#C28678"/>
</svg>
