<svg width="77" height="76" viewBox="0 0 77 76" fill="none" xmlns="http://www.w3.org/2000/svg">
<g clip-path="url(#clip0_1_160)">
<path d="M38.4674 42.0891C38.4674 35.845 33.4056 30.7832 27.1616 30.7832L25.6771 41.2585L27.1616 66.3619H38.4674V42.0891Z" fill="#24B3B3"/>
<path d="M15.8553 42.0891V66.3619H27.1612V30.7832C20.9172 30.7832 15.8553 35.845 15.8553 42.0891Z" fill="#2EE6A8"/>
<path d="M61.0789 42.0891C61.0789 35.845 56.0171 30.7832 49.773 30.7832L48.2886 41.2585L49.773 66.3619H61.0789V42.0891Z" fill="#E62E6B"/>
<path d="M38.4674 42.0891V66.3619H49.7733V30.7832C43.5292 30.7832 38.4674 35.845 38.4674 42.0891Z" fill="#FF6666"/>
<path d="M36.2406 0.00289917H40.694V6.68293H36.2406V0.00289917Z" fill="#FFB655"/>
<path d="M36.2406 0.00289917H40.694V6.68293H36.2406V0.00289917Z" fill="#FFB655"/>
<path d="M24.6049 2.55142L28.84 1.17534L30.9041 7.52804L26.669 8.90413L24.6049 2.55142Z" fill="#FFDA44"/>
<path d="M24.6049 2.55142L28.84 1.17534L30.9041 7.52804L26.669 8.90413L24.6049 2.55142Z" fill="#FFDA44"/>
<path d="M14.33 8.5661L17.9327 5.94753L21.8606 11.3517L18.2578 13.9702L14.33 8.5661Z" fill="#FFDA44"/>
<path d="M14.33 8.5661L17.9327 5.94753L21.8606 11.3517L18.2578 13.9702L14.33 8.5661Z" fill="#FFDA44"/>
<path d="M6.41553 17.4723L9.0341 13.8696L14.4382 17.7974L11.8197 21.4002L6.41553 17.4723Z" fill="#FFDA44"/>
<path d="M6.41553 17.4723L9.0341 13.8696L14.4382 17.7974L11.8197 21.4002L6.41553 17.4723Z" fill="#FFDA44"/>
<path d="M1.63562 28.3793L3.01171 24.1442L9.36441 26.2083L7.98833 30.4435L1.63562 28.3793Z" fill="#FFDA44"/>
<path d="M1.63562 28.3793L3.01171 24.1442L9.36441 26.2083L7.98833 30.4435L1.63562 28.3793Z" fill="#FFDA44"/>
<path d="M0.465454 35.7782H7.14548V40.2315H0.465454V35.7782Z" fill="#FFDA44"/>
<path d="M0.465454 35.7782H7.14548V40.2315H0.465454V35.7782Z" fill="#FFDA44"/>
<path d="M69.7894 35.7781H76.4695V40.2315H69.7894V35.7781Z" fill="#FFB655"/>
<path d="M69.7894 35.7781H76.4695V40.2315H69.7894V35.7781Z" fill="#FFB655"/>
<path d="M67.5636 26.2081L73.9163 24.1439L75.2924 28.3791L68.9397 30.4432L67.5636 26.2081Z" fill="#FFB655"/>
<path d="M67.5636 26.2081L73.9163 24.1439L75.2924 28.3791L68.9397 30.4432L67.5636 26.2081Z" fill="#FFB655"/>
<path d="M62.5007 17.7794L67.9049 13.8516L70.5234 17.4544L65.1193 21.3822L62.5007 17.7794Z" fill="#FFB655"/>
<path d="M62.5007 17.7794L67.9049 13.8516L70.5234 17.4544L65.1193 21.3822L62.5007 17.7794Z" fill="#FFB655"/>
<path d="M55.0876 11.3583L59.0155 5.95413L62.6183 8.57271L58.6904 13.9768L55.0876 11.3583Z" fill="#FFB655"/>
<path d="M55.0876 11.3583L59.0155 5.95413L62.6183 8.57271L58.6904 13.9768L55.0876 11.3583Z" fill="#FFB655"/>
<path d="M46.0276 7.53024L48.0917 1.17754L52.3269 2.55362L50.2627 8.90633L46.0276 7.53024Z" fill="#FFB655"/>
<path d="M46.0276 7.53024L48.0917 1.17754L52.3269 2.55362L50.2627 8.90633L46.0276 7.53024Z" fill="#FFB655"/>
<path d="M33.6451 24.2998C33.6451 20.719 30.7424 17.8163 27.1616 17.8163L25.6771 24.2998L27.1616 30.7833C30.7422 30.7833 33.6451 27.8804 33.6451 24.2998Z" fill="#DBAD5C"/>
<path d="M20.678 24.2998C20.678 27.8806 23.5807 30.7833 27.1615 30.7833V17.8163C23.5807 17.8163 20.678 20.719 20.678 24.2998Z" fill="#E7C994"/>
<path d="M56.2565 24.2998C56.2565 20.719 53.3538 17.8163 49.773 17.8163L48.2886 24.2998L49.773 30.7833C53.3538 30.7833 56.2565 27.8804 56.2565 24.2998Z" fill="#8C574D"/>
<path d="M43.2894 24.2998C43.2894 27.8806 46.1921 30.7833 49.7729 30.7833V17.8163C46.1923 17.8163 43.2894 20.719 43.2894 24.2998Z" fill="#A6756B"/>
<path d="M67.5623 48.5727C67.5623 44.9919 64.6596 42.0892 61.0788 42.0892L59.5944 48.5727L61.0788 55.0562C64.6596 55.056 67.5623 52.1533 67.5623 48.5727Z" fill="#DBAD5C"/>
<path d="M54.5957 48.5727C54.5957 52.1535 57.4984 55.0562 61.0792 55.0562V42.0892C57.4985 42.0892 54.5957 44.9919 54.5957 48.5727Z" fill="#E7C994"/>
<path d="M72.3847 66.362C72.3847 60.1179 67.3229 55.0561 61.0788 55.0561L59.5944 65.5314L61.0788 76.0067H72.3847V66.362Z" fill="#6A4DFF"/>
<path d="M49.773 66.362L48.2886 71.5534L49.773 76.0068H61.0789V55.056C54.8349 55.056 49.773 60.1178 49.773 66.362Z" fill="#6680FF"/>
<path d="M44.9508 48.5727C44.9508 44.9919 42.0482 42.0892 38.4674 42.0892L36.9829 48.5727L38.4674 55.0562C42.0482 55.056 44.9508 52.1533 44.9508 48.5727Z" fill="#FFCDBE"/>
<path d="M31.9836 48.5727C31.9836 52.1535 34.8863 55.0562 38.4671 55.0562V42.0892C34.8863 42.0892 31.9836 44.9919 31.9836 48.5727Z" fill="#FFDECF"/>
<path d="M49.7732 66.362C49.7732 60.1179 44.7114 55.0561 38.4674 55.0561L36.9829 65.5314L38.4674 76.0067H49.7732V66.362Z" fill="#404A80"/>
<path d="M27.1616 66.362L25.6771 71.5534L27.1616 76.0068H38.4674V55.056C32.2234 55.056 27.1616 60.1178 27.1616 66.362Z" fill="#5C6699"/>
<path d="M22.339 48.5727C22.339 44.9919 19.4363 42.0892 15.8555 42.0892L14.3711 48.5727L15.8555 55.0562C19.4362 55.056 22.339 52.1533 22.339 48.5727Z" fill="#8C574D"/>
<path d="M9.37219 48.5727C9.37219 52.1535 12.2749 55.0562 15.8557 55.0562V42.0892C12.2749 42.0892 9.37219 44.9919 9.37219 48.5727Z" fill="#A6756B"/>
<path d="M27.1614 66.362C27.1614 60.1179 22.0996 55.0561 15.8555 55.0561L14.3711 65.5314L15.8555 76.0067H27.1614V66.362Z" fill="#FFB655"/>
<path d="M4.54968 66.362V76.0068H15.8556V55.056C9.61151 55.056 4.54968 60.1178 4.54968 66.362Z" fill="#FFDA44"/>
</g>
<defs>
<clipPath id="clip0_1_160">
<rect width="76.0039" height="76.0039" fill="white" transform="translate(0.465576 0.00289917)"/>
</clipPath>
</defs>
</svg>
