<svg width="24" height="25" viewBox="0 0 24 25" fill="none" xmlns="http://www.w3.org/2000/svg">
<g clip-path="url(#clip0_1_268)">
<path d="M4.38226 0.305908C1.95468 0.305908 0 2.26863 0 4.7062V20.0044C0 22.442 1.95468 24.4047 4.38226 24.4047H12.6398V14.9836H10.1588V11.5917H12.6398V8.6938C12.6398 6.41707 14.1057 4.32664 17.4825 4.32664C18.8497 4.32664 19.8608 4.45844 19.8608 4.45844L19.7813 7.62593C19.7813 7.62593 18.7501 7.61615 17.625 7.61615C16.4073 7.61615 16.212 8.17953 16.212 9.1148V11.5917H19.878L19.7183 14.9836H16.212V24.4047H19.6177C22.0453 24.4047 24 22.442 24 20.0044V4.70622C24 2.26866 22.0453 0.305932 19.6177 0.305932H4.38223L4.38226 0.305908Z" fill="#111111"/>
</g>
<defs>
<clipPath id="clip0_1_268">
<rect width="24" height="24.0988" fill="white" transform="translate(0 0.305908)"/>
</clipPath>
</defs>
</svg>
