<svg width="24" height="25" viewBox="0 0 24 25" fill="none" xmlns="http://www.w3.org/2000/svg">
<g clip-path="url(#clip0_1_263)">
<path d="M23.9227 7.38962C23.9093 6.38191 23.7203 5.38422 23.3643 4.44118C23.0556 3.64573 22.584 2.92331 21.9798 2.3201C21.3756 1.71688 20.652 1.24612 19.8552 0.937908C18.9227 0.588455 17.9376 0.399499 16.9418 0.379087C15.6597 0.321875 15.2532 0.305908 11.9987 0.305908C8.74411 0.305908 8.32697 0.305908 7.0542 0.379087C6.05885 0.399649 5.07421 0.588602 4.14216 0.937908C3.34526 1.24591 2.62153 1.71659 2.01728 2.31983C1.41303 2.92308 0.941567 3.6456 0.633052 4.44118C0.282316 5.37139 0.093456 6.35462 0.0746335 7.34837C0.0173256 8.62967 0 9.03548 0 12.2846C0 15.5338 -9.92969e-09 15.9489 0.0746335 17.2209C0.0946246 18.2161 0.282541 19.198 0.633052 20.1307C0.942085 20.9261 1.4139 21.6483 2.01835 22.2513C2.6228 22.8543 3.3466 23.3248 4.14349 23.6327C5.07299 23.9962 6.0578 24.1986 7.05553 24.2314C8.33896 24.2886 8.74545 24.3059 12 24.3059C15.2546 24.3059 15.6717 24.3059 16.9445 24.2314C17.9402 24.2118 18.9254 24.0233 19.8578 23.6739C20.6544 23.3653 21.3778 22.8945 21.982 22.2913C22.5862 21.6881 23.0579 20.9659 23.3669 20.1706C23.7175 19.2393 23.9054 18.2573 23.9254 17.2608C23.9827 15.9808 24 15.575 24 12.3245C23.9973 9.0754 23.9973 8.66293 23.9227 7.38962ZM11.9907 18.429C8.58685 18.429 5.82941 15.6761 5.82941 12.278C5.82941 8.87981 8.58685 6.12695 11.9907 6.12695C13.6247 6.12695 15.1919 6.77501 16.3473 7.92854C17.5028 9.08208 18.1519 10.6466 18.1519 12.278C18.1519 13.9093 17.5028 15.4739 16.3473 16.6274C15.1919 17.7809 13.6247 18.429 11.9907 18.429ZM18.3972 7.33374C17.6015 7.33374 16.9605 6.69243 16.9605 5.89943C16.9605 5.71116 16.9976 5.52474 17.0698 5.3508C17.1419 5.17687 17.2477 5.01882 17.3811 4.8857C17.5144 4.75257 17.6727 4.64697 17.8469 4.57492C18.0212 4.50288 18.2079 4.46579 18.3965 4.46579C18.5851 4.46579 18.7718 4.50288 18.946 4.57492C19.1203 4.64697 19.2786 4.75257 19.4119 4.8857C19.5453 5.01882 19.651 5.17687 19.7232 5.3508C19.7954 5.52474 19.8325 5.71116 19.8325 5.89943C19.8325 6.69243 19.1901 7.33374 18.3972 7.33374Z" fill="#111111"/>
<path d="M11.994 15.3496C13.6525 15.3496 14.997 13.9995 14.997 12.3342C14.997 10.6689 13.6525 9.31885 11.994 9.31885C10.3355 9.31885 8.99097 10.6689 8.99097 12.3342C8.99097 13.9995 10.3355 15.3496 11.994 15.3496Z" fill="#111111"/>
</g>
<defs>
<clipPath id="clip0_1_263">
<rect width="24" height="24.0988" fill="white" transform="translate(0 0.305908)"/>
</clipPath>
</defs>
</svg>
