<svg width="24" height="25" viewBox="0 0 24 25" fill="none" xmlns="http://www.w3.org/2000/svg">
<g clip-path="url(#clip0_1_266)">
<path d="M20 7.93604C19.4167 8.19645 18.7865 8.37354 18.1094 8.46729C18.8177 8.05062 19.3021 7.44124 19.5625 6.63916C18.8854 7.03499 18.1875 7.30062 17.4688 7.43604C16.8333 6.74854 16.0365 6.40479 15.0781 6.40479C14.1719 6.40479 13.3984 6.7251 12.7578 7.36572C12.1172 8.00635 11.7969 8.77979 11.7969 9.68604C11.7969 9.98812 11.8229 10.2381 11.875 10.436C10.5312 10.3631 9.27083 10.0246 8.09375 9.42041C6.91667 8.81624 5.91667 8.00895 5.09375 6.99854C4.79167 7.51937 4.64062 8.07145 4.64062 8.65479C4.64062 9.84229 5.11458 10.7537 6.0625 11.3892C5.57292 11.3787 5.05208 11.2433 4.5 10.9829V11.0142C4.5 11.7954 4.76042 12.4907 5.28125 13.1001C5.80208 13.7095 6.44271 14.0871 7.20312 14.2329C6.90104 14.3162 6.63542 14.3579 6.40625 14.3579C6.27083 14.3579 6.06771 14.3371 5.79688 14.2954C6.01562 14.9517 6.40365 15.4933 6.96094 15.9204C7.51823 16.3475 8.15104 16.5662 8.85938 16.5767C7.65104 17.5142 6.29167 17.9829 4.78125 17.9829C4.51042 17.9829 4.25 17.9673 4 17.936C5.54167 18.9152 7.21875 19.4048 9.03125 19.4048C10.1979 19.4048 11.2917 19.2199 12.3125 18.8501C13.3333 18.4803 14.2083 17.9855 14.9375 17.3657C15.6667 16.7459 16.2943 16.0324 16.8203 15.2251C17.3464 14.4178 17.737 13.5741 17.9922 12.6938C18.2474 11.8136 18.375 10.936 18.375 10.061C18.375 9.87354 18.3698 9.73291 18.3594 9.63916C19.0156 9.17041 19.5625 8.6027 20 7.93604ZM24 4.90479V19.9048C24 21.1444 23.5599 22.2043 22.6797 23.0845C21.7995 23.9647 20.7396 24.4048 19.5 24.4048H4.5C3.26042 24.4048 2.20052 23.9647 1.32031 23.0845C0.440104 22.2043 0 21.1444 0 19.9048V4.90479C0 3.6652 0.440104 2.60531 1.32031 1.7251C2.20052 0.844889 3.26042 0.404785 4.5 0.404785H19.5C20.7396 0.404785 21.7995 0.844889 22.6797 1.7251C23.5599 2.60531 24 3.6652 24 4.90479Z" fill="#111111"/>
</g>
<defs>
<clipPath id="clip0_1_266">
<rect width="24" height="24" fill="white" transform="translate(0 0.404785)"/>
</clipPath>
</defs>
</svg>
