<svg width="171" height="40" viewBox="0 0 171 40" fill="none" xmlns="http://www.w3.org/2000/svg">
<path d="M55.9013 30.011V15.9856H51.5557V12.8816H63.7417V15.9856H59.4651V30.011H55.9013ZM65.5066 30.011V12.8816H72.0594C73.2397 12.8816 74.282 13.0885 75.1864 13.5024C76.1061 13.9163 76.8265 14.5294 77.3477 15.3418C77.8688 16.1542 78.1294 17.1582 78.1294 18.3538C78.1294 19.5188 77.8612 20.5151 77.3247 21.3428C76.7882 22.1552 76.0678 22.7684 75.1634 23.1822L79.0721 30.011H75.0714L71.5996 23.803H69.0704V30.011H65.5066ZM69.0704 20.699H72.0824C72.8335 20.699 73.4313 20.4844 73.8758 20.0553C74.3357 19.6261 74.5656 19.0589 74.5656 18.3538C74.5656 17.6334 74.3357 17.0586 73.8758 16.6294C73.4313 16.2002 72.8335 15.9856 72.0824 15.9856H69.0704V20.699ZM80.8423 30.011V12.8816H92.3616V15.9856H84.4062V19.8713H91.9017V22.9753H84.4062V26.907H92.3616V30.011H80.8423ZM93.1173 30.011L98.9114 12.8816H103.648L109.442 30.011H105.556L104.407 26.5161H98.1296L96.98 30.011H93.1173ZM99.1183 23.4122H103.418L101.28 16.8133L99.1183 23.4122ZM117.228 30.2869C116.155 30.2869 115.144 30.0953 114.193 29.7121C113.258 29.3135 112.446 28.7541 111.756 28.0336C111.082 27.3132 110.576 26.4625 110.239 25.4815L113.159 24.1709C113.588 25.1059 114.178 25.8417 114.929 26.3782C115.696 26.9147 116.539 27.1829 117.458 27.1829C118.179 27.1829 118.754 27.022 119.183 26.7001C119.627 26.3629 119.85 25.9183 119.85 25.3665C119.85 24.5694 119.344 24.0023 118.332 23.6651L114.975 22.5614C112.231 21.6571 110.86 20.0399 110.86 17.71C110.86 16.6984 111.105 15.8093 111.595 15.0429C112.101 14.2765 112.799 13.6787 113.688 13.2495C114.592 12.8203 115.627 12.6057 116.792 12.6057C118.34 12.6057 119.696 12.9966 120.861 13.7783C122.042 14.5447 122.869 15.6024 123.344 16.9513L120.447 18.2618C120.125 17.4648 119.643 16.844 118.999 16.3995C118.355 15.9396 117.619 15.7097 116.792 15.7097C116.071 15.7097 115.489 15.886 115.044 16.2385C114.6 16.5757 114.377 17.0203 114.377 17.5721C114.377 18.3845 114.899 18.9669 115.941 19.3195L119.229 20.3771C121.973 21.2662 123.344 22.8603 123.344 25.1596C123.344 26.1559 123.084 27.045 122.563 27.8267C122.042 28.5931 121.321 29.1986 120.401 29.6431C119.497 30.0723 118.439 30.2869 117.228 30.2869ZM132.69 30.2869C131.341 30.2869 130.138 30.0033 129.08 29.4362C128.022 28.869 127.187 28.0949 126.574 27.1139C125.976 26.1176 125.677 24.991 125.677 23.734V12.8816H129.241V23.5041C129.241 24.1786 129.387 24.7917 129.678 25.3435C129.985 25.88 130.398 26.3015 130.92 26.6081C131.441 26.9147 132.031 27.068 132.69 27.068C133.364 27.068 133.955 26.9147 134.46 26.6081C134.982 26.3015 135.388 25.88 135.679 25.3435C135.986 24.7917 136.139 24.1786 136.139 23.5041V12.8816H139.703V23.734C139.703 24.991 139.396 26.1176 138.783 27.1139C138.185 28.0949 137.357 28.869 136.3 29.4362C135.242 30.0033 134.039 30.2869 132.69 30.2869ZM142.522 30.011V12.8816H149.075C150.255 12.8816 151.298 13.0885 152.202 13.5024C153.122 13.9163 153.842 14.5294 154.363 15.3418C154.885 16.1542 155.145 17.1582 155.145 18.3538C155.145 19.5188 154.877 20.5151 154.34 21.3428C153.804 22.1552 153.083 22.7684 152.179 23.1822L156.088 30.011H152.087L148.615 23.803H146.086V30.011H142.522ZM146.086 20.699H149.098C149.849 20.699 150.447 20.4844 150.892 20.0553C151.351 19.6261 151.581 19.0589 151.581 18.3538C151.581 17.6334 151.351 17.0586 150.892 16.6294C150.447 16.2002 149.849 15.9856 149.098 15.9856H146.086V20.699ZM157.858 30.011V12.8816H169.377V15.9856H161.422V19.8713H168.917V22.9753H161.422V26.907H169.377V30.011H157.858Z" fill="#003E7B"/>
<path d="M40.5372 13.0897C40.5345 13.4602 40.4608 13.8268 40.32 14.1697C40.2771 14.2827 40.2262 14.3879 40.1708 14.4965C39.4708 15.8479 37.935 16.661 36.3812 17.3372C34.4983 18.1571 32.5227 18.6728 31.0107 19.0335L30.6307 19.1217H30.6149C28.2186 19.5605 26.6659 19.971 25.3224 20.878C23.9224 21.8234 22.3459 23.3128 21.5068 24.9729C21.8574 19.997 24.6032 15.2304 28.836 12.4733C31.3647 10.8268 34.2439 9.87234 36.7363 9.85425H36.7634C38.0368 9.85425 39.3475 10.5226 40.0328 11.5234C40.3554 11.9825 40.5312 12.5286 40.5372 13.0897Z" fill="#003E7B"/>
<path d="M29.5061 34.4949C29.3097 34.9343 29.0083 35.3188 28.6286 35.6146C28.2488 35.9103 27.8022 36.1084 27.3281 36.1912C26.7996 36.2808 26.2575 36.2447 25.7455 36.086C25.2335 35.9273 24.7661 35.6503 24.381 35.2775C23.4876 34.4078 22.8419 33.2419 22.2889 31.4958C21.7054 29.6582 21.4362 28.2423 21.4667 27.1691C21.4667 27.1058 21.4724 27.0436 21.4769 26.9803V26.9723C22.0503 24.3261 23.9015 22.2023 26.8316 20.8328C27.6956 20.4291 28.6252 20.1701 29.5525 19.9485C27.9693 21.6448 28.5008 23.8647 28.9045 25.5508C28.9543 25.7612 29.0029 25.9647 29.047 26.1626C29.1397 26.5811 29.2438 27.0029 29.3546 27.4507C29.9189 29.7079 30.5544 32.2716 29.5061 34.4949Z" fill="#003E7B"/>
<path d="M20.4962 28.2046C19.5689 26.5908 17.9121 25.1885 16.4624 24.32C15.0714 23.4877 13.4983 23.162 11.0828 22.8499H11.067L10.6813 22.782C9.15352 22.5072 7.15188 22.1035 5.22713 21.3831C3.63826 20.794 2.06182 20.0668 1.29509 18.755C1.23289 18.6498 1.182 18.5424 1.12772 18.4372C0.921968 18.0195 0.826626 17.556 0.850777 17.091C0.874929 16.626 1.01777 16.1749 1.26568 15.7808C1.89897 14.737 3.18817 13.9951 4.46605 13.9352C6.95398 13.8221 9.88294 14.6137 12.4953 16.1212C16.874 18.6419 19.8753 23.2446 20.4962 28.2046Z" fill="#003E7B"/>
<path d="M20.0669 34.7531C19.6089 36.5251 19.0276 37.725 18.1828 38.6433C17.8183 39.036 17.3666 39.3376 16.8641 39.5238C16.3617 39.71 15.8225 39.7756 15.2901 39.7153C14.8135 39.658 14.3582 39.4849 13.9639 39.2111C13.5697 38.9373 13.2485 38.5711 13.0283 38.1446C11.8601 35.9812 12.3566 33.387 12.7931 31.097C12.8802 30.6446 12.9616 30.2171 13.0317 29.7942C13.0645 29.5952 13.1018 29.3882 13.1448 29.1756C13.4558 27.4703 13.8663 25.2243 12.1937 23.6196C13.1312 23.7881 14.0744 23.9962 14.9587 24.3524C17.9589 25.5613 19.9232 27.5799 20.638 30.1911V30.2047C20.647 30.2646 20.6538 30.3257 20.6583 30.3868C20.7363 31.4577 20.5441 32.886 20.0669 34.7531Z" fill="#003E7B"/>
<path d="M19.314 15.5337C25.3503 14.831 29.8788 11.1277 29.4288 7.26216C28.9788 3.39661 23.7207 0.832599 17.6845 1.53529C11.6482 2.23798 7.11968 5.94127 7.56967 9.80682C8.01966 13.6724 13.2778 16.2364 19.314 15.5337Z" fill="#003E7B"/>
</svg>
